<svg xmlns="http://www.w3.org/2000/svg" width="95" height="26" fill="none"><mask id="a" width="76" height="16" x="19" y="5" fill="#000" maskUnits="userSpaceOnUse"><path fill="#fff" d="M19 5h76v16H19z"/><path d="M25.14 20.24c-.987 0-1.853-.18-2.6-.54a4.239 4.239 0 0 1-1.74-1.54c-.413-.667-.627-1.46-.64-2.38h2.24c.013.707.253 1.313.72 1.82.48.493 1.147.74 2 .74.787 0 1.4-.18 1.84-.54.44-.373.66-.853.66-1.44 0-.493-.133-.9-.4-1.22-.253-.333-.653-.627-1.2-.88-.547-.267-1.253-.54-2.12-.82-1.16-.373-2.013-.887-2.56-1.54-.547-.667-.82-1.48-.82-2.44 0-1.107.4-2 1.2-2.68.8-.68 1.9-1.02 3.3-1.02 1.36 0 2.453.353 3.28 1.06.827.693 1.253 1.66 1.28 2.9h-2.26a1.82 1.82 0 0 0-.28-.96 2.142 2.142 0 0 0-.8-.78c-.347-.213-.773-.32-1.28-.32-.627-.013-1.153.14-1.58.46-.427.307-.64.727-.64 1.26 0 .653.26 1.167.78 1.54.52.36 1.367.733 2.54 1.12a8.98 8.98 0 0 1 1.94.88 3.69 3.69 0 0 1 1.34 1.3c.333.52.5 1.187.5 2 0 .747-.187 1.427-.56 2.04-.373.6-.913 1.08-1.62 1.44-.693.36-1.533.54-2.52.54ZM36.412 20V6h4.74c1.067 0 1.947.187 2.64.56.694.36 1.207.86 1.54 1.5.334.64.5 1.373.5 2.2 0 .827-.166 1.56-.5 2.2-.333.64-.846 1.147-1.54 1.52-.693.36-1.573.54-2.64.54h-2.62V20h-2.12Zm2.12-7.38h2.52c.907 0 1.567-.213 1.98-.64.427-.427.64-1 .64-1.72 0-.707-.213-1.273-.64-1.7-.413-.44-1.073-.66-1.98-.66h-2.52v4.72Zm18.452 7.62c-1.133 0-2.113-.293-2.94-.88-.826-.587-1.46-1.42-1.9-2.5-.44-1.08-.66-2.367-.66-3.86 0-1.493.22-2.78.66-3.86.44-1.08 1.074-1.913 1.9-2.5.827-.587 1.807-.88 2.94-.88 1.147 0 2.127.293 2.94.88.827.587 1.46 1.42 1.9 2.5.44 1.08.66 2.367.66 3.86 0 1.493-.22 2.78-.66 3.86-.44 1.08-1.073 1.913-1.9 2.5-.813.587-1.793.88-2.94.88Zm0-2c1 0 1.807-.447 2.42-1.34.614-.907.92-2.207.92-3.9s-.306-2.987-.92-3.88c-.613-.907-1.42-1.36-2.42-1.36-1.013 0-1.826.453-2.44 1.36-.6.893-.9 2.187-.9 3.88s.3 2.993.9 3.9c.614.893 1.427 1.34 2.44 1.34ZM71.917 20V7.9h-3.76V6h9.64v1.9h-3.76V20h-2.12Zm17.192.24c-.987 0-1.854-.18-2.6-.54a4.237 4.237 0 0 1-1.74-1.54c-.414-.667-.627-1.46-.64-2.38h2.24c.013.707.253 1.313.72 1.82.48.493 1.146.74 2 .74.786 0 1.4-.18 1.84-.54.44-.373.66-.853.66-1.44 0-.493-.134-.9-.4-1.22-.254-.333-.654-.627-1.2-.88-.547-.267-1.254-.54-2.12-.82-1.16-.373-2.014-.887-2.56-1.54-.547-.667-.82-1.48-.82-2.44 0-1.107.4-2 1.2-2.68.8-.68 1.9-1.02 3.3-1.02 1.36 0 2.453.353 3.28 1.06.826.693 1.253 1.66 1.28 2.9h-2.26a1.82 1.82 0 0 0-.28-.96 2.143 2.143 0 0 0-.8-.78c-.347-.213-.774-.32-1.28-.32-.627-.013-1.154.14-1.58.46-.427.307-.64.727-.64 1.26 0 .653.26 1.167.78 1.54.52.36 1.366.733 2.54 1.12a8.98 8.98 0 0 1 1.94.88 3.69 3.69 0 0 1 1.34 1.3c.333.52.5 1.187.5 2 0 .747-.187 1.427-.56 2.04-.374.6-.914 1.08-1.62 1.44-.694.36-1.534.54-2.52.54Z"/></mask><path fill="#212121" d="M25.14 20.24c-.987 0-1.853-.18-2.6-.54a4.239 4.239 0 0 1-1.74-1.54c-.413-.667-.627-1.46-.64-2.38h2.24c.013.707.253 1.313.72 1.82.48.493 1.147.74 2 .74.787 0 1.4-.18 1.84-.54.44-.373.66-.853.66-1.44 0-.493-.133-.9-.4-1.22-.253-.333-.653-.627-1.2-.88-.547-.267-1.253-.54-2.12-.82-1.16-.373-2.013-.887-2.56-1.54-.547-.667-.82-1.48-.82-2.44 0-1.107.4-2 1.2-2.68.8-.68 1.9-1.02 3.3-1.02 1.36 0 2.453.353 3.28 1.06.827.693 1.253 1.66 1.28 2.9h-2.26a1.82 1.82 0 0 0-.28-.96 2.142 2.142 0 0 0-.8-.78c-.347-.213-.773-.32-1.28-.32-.627-.013-1.153.14-1.58.46-.427.307-.64.727-.64 1.26 0 .653.26 1.167.78 1.54.52.36 1.367.733 2.54 1.12a8.98 8.98 0 0 1 1.94.88 3.69 3.69 0 0 1 1.34 1.3c.333.52.5 1.187.5 2 0 .747-.187 1.427-.56 2.04-.373.6-.913 1.08-1.62 1.44-.693.36-1.533.54-2.52.54ZM36.412 20V6h4.74c1.067 0 1.947.187 2.64.56.694.36 1.207.86 1.54 1.5.334.64.5 1.373.5 2.2 0 .827-.166 1.56-.5 2.2-.333.64-.846 1.147-1.54 1.52-.693.36-1.573.54-2.64.54h-2.62V20h-2.12Zm2.12-7.38h2.52c.907 0 1.567-.213 1.98-.64.427-.427.64-1 .64-1.72 0-.707-.213-1.273-.64-1.7-.413-.44-1.073-.66-1.98-.66h-2.52v4.72Zm18.452 7.62c-1.133 0-2.113-.293-2.94-.88-.826-.587-1.46-1.42-1.9-2.5-.44-1.08-.66-2.367-.66-3.86 0-1.493.22-2.78.66-3.86.44-1.08 1.074-1.913 1.9-2.5.827-.587 1.807-.88 2.94-.88 1.147 0 2.127.293 2.94.88.827.587 1.46 1.42 1.9 2.5.44 1.08.66 2.367.66 3.86 0 1.493-.22 2.78-.66 3.86-.44 1.08-1.073 1.913-1.9 2.5-.813.587-1.793.88-2.94.88Zm0-2c1 0 1.807-.447 2.42-1.34.614-.907.92-2.207.92-3.9s-.306-2.987-.92-3.88c-.613-.907-1.42-1.36-2.42-1.36-1.013 0-1.826.453-2.44 1.36-.6.893-.9 2.187-.9 3.88s.3 2.993.9 3.9c.614.893 1.427 1.34 2.44 1.34ZM71.917 20V7.9h-3.76V6h9.64v1.9h-3.76V20h-2.12Zm17.192.24c-.987 0-1.854-.18-2.6-.54a4.237 4.237 0 0 1-1.74-1.54c-.414-.667-.627-1.46-.64-2.38h2.24c.013.707.253 1.313.72 1.82.48.493 1.146.74 2 .74.786 0 1.4-.18 1.84-.54.44-.373.66-.853.66-1.44 0-.493-.134-.9-.4-1.22-.254-.333-.654-.627-1.2-.88-.547-.267-1.254-.54-2.12-.82-1.16-.373-2.014-.887-2.56-1.54-.547-.667-.82-1.48-.82-2.44 0-1.107.4-2 1.2-2.68.8-.68 1.9-1.02 3.3-1.02 1.36 0 2.453.353 3.28 1.06.826.693 1.253 1.66 1.28 2.9h-2.26a1.82 1.82 0 0 0-.28-.96 2.143 2.143 0 0 0-.8-.78c-.347-.213-.774-.32-1.28-.32-.627-.013-1.154.14-1.58.46-.427.307-.64.727-.64 1.26 0 .653.26 1.167.78 1.54.52.36 1.366.733 2.54 1.12a8.98 8.98 0 0 1 1.94.88 3.69 3.69 0 0 1 1.34 1.3c.333.52.5 1.187.5 2 0 .747-.187 1.427-.56 2.04-.374.6-.914 1.08-1.62 1.44-.694.36-1.534.54-2.52.54Z"/><path fill="#212121" d="m22.54 19.7-.088.18h.001l.087-.18Zm-1.74-1.54-.17.105.002.003.168-.108Zm-.64-2.38v-.2h-.203l.003.203.2-.003Zm2.24 0 .2-.004-.004-.196H22.4v.2Zm.72 1.82-.147.135.004.005.143-.14Zm3.84.2.127.155.002-.002-.129-.153Zm.26-2.66-.16.121.006.007.154-.128Zm-1.2-.88-.088.18.004.002.084-.182Zm-2.12-.82.062-.19-.062.19Zm-2.56-1.54-.155.127.002.001.153-.128Zm6.96-5.08-.13.152.002.001.128-.153Zm1.28 2.9v.2h.204l-.004-.204-.2.004Zm-2.26 0h-.2v.2h.2v-.2Zm-.28-.96-.173.1.002.004.171-.104Zm-.8-.78-.105.17.005.003.1-.173Zm-1.28-.32-.004.2h.004v-.2Zm-1.58.46.117.162.003-.002-.12-.16Zm.14 2.8-.117.162.003.002.114-.164Zm2.54 1.12-.063.19.063-.19Zm1.94.88-.105.17.005.003.1-.173Zm1.34 1.3-.172.103.004.005.168-.108Zm-.06 4.04.17.106v-.002l-.17-.104Zm-1.62 1.44-.09-.178h-.002l.092.178Zm-2.52.34c-.962 0-1.798-.175-2.513-.52l-.174.36c.779.376 1.676.56 2.687.56v-.4Zm-2.512-.52a4.04 4.04 0 0 1-1.66-1.468l-.337.216a4.438 4.438 0 0 0 1.82 1.611l.177-.359Zm-1.658-1.465c-.391-.631-.597-1.388-.61-2.278l-.4.006c.014.95.235 1.78.67 2.482l.34-.21Zm-.81-2.075h2.24v-.4h-2.24v.4Zm2.04-.196c.014.754.272 1.408.773 1.951l.294-.27a2.472 2.472 0 0 1-.667-1.689l-.4.008Zm.777 1.955c.526.541 1.25.801 2.143.801v-.4c-.813 0-1.423-.234-1.857-.68l-.286.28Zm2.143.801c.815 0 1.48-.186 1.967-.585l-.254-.31c-.392.322-.955.495-1.713.495v.4Zm1.97-.587c.485-.413.73-.949.73-1.593h-.4c0 .53-.195.953-.59 1.288l.26.305Zm.73-1.593c0-.531-.144-.986-.446-1.348l-.308.256c.232.278.354.636.354 1.092h.4Zm-.44-1.341c-.28-.368-.712-.679-1.276-.94l-.168.362c.53.246.898.522 1.125.82l.318-.242Zm-1.272-.939c-.559-.272-1.275-.549-2.146-.83l-.123.38c.861.279 1.558.549 2.093.81l.176-.36Zm-2.147-.83c-1.138-.367-1.953-.864-2.468-1.478l-.306.256c.579.693 1.47 1.222 2.652 1.602l.122-.38Zm-2.466-1.477c-.514-.627-.775-1.394-.775-2.313h-.4c0 1 .286 1.86.865 2.567l.31-.254ZM20.72 9.46c0-1.052.377-1.888 1.13-2.528l-.26-.304c-.847.72-1.27 1.67-1.27 2.832h.4Zm1.13-2.528c.753-.64 1.801-.972 3.17-.972v-.4c-1.431 0-2.583.348-3.43 1.068l.26.304Zm3.17-.972c1.325 0 2.368.343 3.15 1.012l.26-.304c-.871-.745-2.015-1.108-3.41-1.108v.4Zm3.152 1.013c.775.65 1.182 1.56 1.208 2.751l.4-.008c-.028-1.288-.474-2.313-1.352-3.05l-.256.307ZM29.58 9.52h-2.26v.4h2.26v-.4Zm-2.06.2a2.02 2.02 0 0 0-.31-1.064l-.34.208c.168.278.25.562.25.856h.4Zm-.307-1.06a2.342 2.342 0 0 0-.873-.853l-.2.346c.32.184.56.42.727.708l.346-.202Zm-.868-.85c-.385-.237-.85-.35-1.385-.35v.4c.479 0 .867.1 1.175.29l.21-.34Zm-1.38-.35c-.664-.014-1.236.149-1.705.5l.24.32c.385-.289.866-.433 1.456-.42l.008-.4Zm-1.702.498c-.48.345-.723.825-.723 1.422h.4c0-.47.183-.83.557-1.098l-.234-.324ZM22.54 9.38c0 .716.29 1.29.863 1.702l.234-.325c-.467-.334-.697-.787-.697-1.377h-.4Zm.866 1.704c.545.377 1.414.758 2.591 1.146l.126-.38c-1.17-.385-1.994-.751-2.49-1.094l-.227.328Zm2.592 1.146a8.78 8.78 0 0 1 1.897.86l.21-.34a9.182 9.182 0 0 0-1.983-.9l-.124.38Zm1.901.863a3.49 3.49 0 0 1 1.27 1.23l.343-.206a3.89 3.89 0 0 0-1.412-1.37l-.2.346Zm1.273 1.235c.307.479.468 1.105.468 1.892h.4c0-.84-.172-1.547-.532-2.108l-.336.216Zm.468 1.892c0 .712-.177 1.355-.53 1.936l.34.208c.394-.646.59-1.362.59-2.144h-.4Zm-.53 1.934c-.352.566-.863 1.022-1.54 1.368l.18.356c.736-.374 1.305-.878 1.7-1.512l-.34-.212Zm-1.542 1.369c-.659.341-1.465.517-2.428.517v.4c1.01 0 1.884-.184 2.612-.563l-.184-.354Zm8.844.477h-.2v.2h.2V20Zm0-14v-.2h-.2V6h.2Zm7.38.56-.095.176.003.002.092-.178Zm1.54 1.5-.177.092.177-.092Zm0 4.4-.177-.092.177.092Zm-1.54 1.52.092.178.003-.002-.095-.176Zm-5.26.54v-.2h-.2v.2h.2Zm0 5.48v.2h.2V20h-.2Zm0-7.38h-.2v.2h.2v-.2Zm4.5-.64-.141-.141-.002.002.143.139Zm0-3.42-.146.137.005.004.141-.141Zm-4.5-.66v-.2h-.2v.2h.2ZM36.612 20V6h-.4v14h.4Zm-.2-13.8h4.74v-.4h-4.74v.4Zm4.74 0c1.045 0 1.89.183 2.545.536l.19-.352c-.731-.394-1.646-.584-2.735-.584v.4Zm2.548.537c.66.343 1.142.815 1.455 1.415l.355-.184c-.354-.68-.899-1.208-1.626-1.585l-.184.354Zm1.455 1.415c.316.608.477 1.309.477 2.108h.4c0-.854-.172-1.62-.522-2.292l-.355.184Zm.477 2.108c0 .8-.16 1.5-.477 2.108l.355.184c.35-.672.522-1.438.522-2.292h-.4Zm-.477 2.108c-.313.6-.796 1.08-1.458 1.436l.19.352c.725-.39 1.269-.925 1.623-1.604l-.355-.184ZM43.7 13.802c-.656.341-1.502.518-2.548.518v.4c1.088 0 2.002-.183 2.732-.563l-.184-.354Zm-2.548.518h-2.62v.4h2.62v-.4Zm-2.82.2V20h.4v-5.48h-.4Zm.2 5.28h-2.12v.4h2.12v-.4Zm0-6.98h2.52v-.4h-2.52v.4Zm2.52 0c.933 0 1.657-.219 2.124-.7l-.288-.28c-.36.372-.955.58-1.836.58v.4Zm2.122-.699c.47-.47.698-1.099.698-1.861h-.4c0 .678-.2 1.197-.581 1.579l.283.282Zm.698-1.861c0-.75-.228-1.37-.698-1.841l-.283.282c.383.383.581.896.581 1.559h.4Zm-.694-1.837c-.467-.497-1.192-.723-2.126-.723v.4c.88 0 1.474.214 1.834.597l.292-.274ZM41.052 7.7h-2.52v.4h2.52v-.4Zm-2.72.2v4.72h.4V7.9h-.4Zm15.712 11.46.116-.163-.116.163Zm-1.9-2.5-.185.076.185-.076Zm0-7.72-.185-.075.185.075Zm1.9-2.5-.115-.163.115.163Zm5.88 0-.117.162.002.001.115-.163Zm1.9 2.5.186-.075-.186.075Zm0 7.72.186.076-.186-.076Zm-1.9 2.5-.115-.163h-.002l.117.163Zm-.52-2.46.165.113h.001l-.166-.113Zm0-7.78-.165.112v.001l.165-.113Zm-4.86 0-.165-.112.165.112Zm0 7.78-.166.11.002.003.164-.113Zm2.44 3.14c-1.097 0-2.035-.283-2.824-.843l-.231.326c.864.614 1.886.917 3.055.917v-.4Zm-2.824-.843c-.791-.562-1.402-1.362-1.83-2.412l-.37.15c.451 1.11 1.106 1.976 1.969 2.588l.231-.326Zm-1.83-2.412c-.428-1.05-.646-2.31-.646-3.785h-.4c0 1.512.223 2.826.675 3.936l.37-.151ZM51.684 13c0-1.474.218-2.734.646-3.785l-.37-.15c-.453 1.11-.676 2.423-.676 3.935h.4Zm.646-3.785c.428-1.05 1.039-1.85 1.83-2.412l-.231-.326c-.863.612-1.518 1.478-1.97 2.588l.37.15Zm1.83-2.412c.789-.56 1.727-.843 2.824-.843v-.4c-1.17 0-2.19.303-3.055.917l.231.326Zm2.824-.843c1.111 0 2.049.284 2.823.842l.234-.324c-.852-.615-1.874-.918-3.057-.918v.4Zm2.825.843c.79.562 1.402 1.362 1.83 2.412l.37-.15c-.452-1.11-1.107-1.976-1.969-2.588l-.231.326Zm1.83 2.412c.428 1.05.645 2.31.645 3.785h.4c0-1.512-.222-2.826-.674-3.935l-.37.15ZM62.284 13c0 1.474-.217 2.734-.645 3.785l.37.15c.453-1.11.675-2.423.675-3.935h-.4Zm-.645 3.785c-.428 1.05-1.04 1.85-1.83 2.412l.231.326c.862-.612 1.517-1.478 1.97-2.587l-.37-.151Zm-1.832 2.413c-.774.558-1.712.842-2.823.842v.4c1.183 0 2.205-.303 3.057-.918l-.234-.324Zm-2.823-.758c1.072 0 1.938-.485 2.585-1.427l-.33-.226c-.58.844-1.327 1.253-2.255 1.253v.4Zm2.586-1.428c.645-.953.954-2.299.954-4.012h-.4c0 1.674-.303 2.928-.885 3.788l.331.224ZM60.524 13c0-1.713-.309-3.053-.955-3.993l-.33.226c.581.846.885 2.093.885 3.767h.4Zm-.954-3.992c-.646-.956-1.512-1.448-2.586-1.448v.4c.927 0 1.674.414 2.255 1.272l.331-.224ZM56.984 7.56c-1.085 0-1.958.492-2.605 1.448l.331.224c.58-.857 1.334-1.272 2.274-1.272v-.4Zm-2.606 1.448c-.631.94-.934 2.28-.934 3.992h.4c0-1.675.298-2.922.866-3.768l-.332-.224ZM53.444 13c0 1.712.303 3.057.934 4.01l.333-.22c-.57-.86-.867-2.116-.867-3.79h-.4Zm.935 4.013c.648.943 1.52 1.427 2.605 1.427v-.4c-.942 0-1.696-.41-2.275-1.253l-.33.226ZM71.918 20h-.2v.2h.2V20Zm0-12.1h.2v-.2h-.2v.2Zm-3.76 0h-.2v.2h.2v-.2Zm0-1.9v-.2h-.2V6h.2Zm9.64 0h.2v-.2h-.2V6Zm0 1.9v.2h.2v-.2h-.2Zm-3.76 0v-.2h-.2v.2h.2Zm0 12.1v.2h.2V20h-.2Zm-1.92 0V7.9h-.4V20h.4Zm-.2-12.3h-3.76v.4h3.76v-.4Zm-3.56.2V6h-.4v1.9h.4Zm-.2-1.7h9.64v-.4h-9.64v.4Zm9.44-.2v1.9h.4V6h-.4Zm.2 1.7h-3.76v.4h3.76v-.4Zm-3.96.2V20h.4V7.9h-.4Zm.2 11.9h-2.12v.4h2.12v-.4Zm12.472-.1-.088.18.088-.18Zm-1.74-1.54-.17.105.001.003.169-.108Zm-.64-2.38v-.2h-.203l.003.203.2-.003Zm2.24 0 .2-.004-.004-.196h-.196v.2Zm.72 1.82-.147.135.003.005.144-.14Zm3.84.2.126.155.003-.002-.13-.153Zm.26-2.66-.16.121.006.007.154-.128Zm-1.2-.88-.088.18.004.002.084-.182Zm-2.12-.82.061-.19-.061.19Zm-2.56-1.54-.155.127.001.001.154-.128Zm6.96-5.08-.13.152.001.001.129-.153Zm1.28 2.9v.2h.204l-.004-.204-.2.004Zm-2.26 0h-.2v.2h.2v-.2Zm-.28-.96-.173.1.002.004.17-.104Zm-.8-.78-.105.17.005.003.1-.173Zm-1.28-.32-.005.2h.005v-.2Zm-1.58.46.117.162.003-.002-.12-.16Zm.14 2.8-.117.162.003.002.114-.164Zm2.54 1.12-.063.19.063-.19Zm1.94.88-.106.17.005.003.1-.173Zm1.34 1.3-.172.103.003.005.169-.108Zm-.06 4.04.17.106v-.002l-.17-.104Zm-1.62 1.44-.091-.178h-.001l.092.178Zm-2.52.34c-.962 0-1.798-.175-2.513-.52l-.174.36c.778.376 1.676.56 2.687.56v-.4Zm-2.512-.52a4.04 4.04 0 0 1-1.66-1.468l-.337.216a4.438 4.438 0 0 0 1.82 1.611l.177-.359Zm-1.658-1.465c-.391-.631-.597-1.388-.61-2.278l-.4.006c.013.95.234 1.78.67 2.482l.34-.21Zm-.81-2.075h2.24v-.4h-2.24v.4Zm2.04-.196c.014.754.272 1.408.773 1.951l.294-.27a2.472 2.472 0 0 1-.667-1.689l-.4.008Zm.776 1.955c.527.541 1.25.801 2.144.801v-.4c-.813 0-1.423-.234-1.857-.68l-.287.28Zm2.144.801c.815 0 1.48-.186 1.966-.585l-.253-.31c-.393.322-.955.495-1.713.495v.4Zm1.97-.587c.485-.413.73-.949.73-1.593h-.4c0 .53-.195.953-.59 1.288l.26.305Zm.73-1.593c0-.531-.145-.986-.447-1.348l-.307.256c.231.278.354.636.354 1.092h.4Zm-.441-1.341c-.28-.368-.711-.679-1.275-.94l-.168.362c.529.246.898.522 1.124.82l.319-.242Zm-1.272-.939c-.558-.272-1.274-.549-2.146-.83l-.123.38c.862.279 1.559.549 2.094.81l.175-.36Zm-2.146-.83c-1.139-.367-1.954-.864-2.468-1.478l-.307.256c.58.693 1.471 1.222 2.653 1.602l.122-.38Zm-2.467-1.477c-.514-.627-.774-1.394-.774-2.313h-.4c0 1 .286 1.86.865 2.567l.31-.254ZM84.69 9.46c0-1.052.377-1.888 1.13-2.528l-.26-.304c-.847.72-1.27 1.67-1.27 2.832h.4Zm1.13-2.528c.753-.64 1.801-.972 3.17-.972v-.4c-1.432 0-2.583.348-3.43 1.068l.26.304Zm3.17-.972c1.324 0 2.368.343 3.15 1.012l.26-.304c-.872-.745-2.015-1.108-3.41-1.108v.4Zm3.151 1.013c.776.65 1.183 1.56 1.209 2.751l.4-.008c-.028-1.288-.474-2.313-1.352-3.05l-.257.307ZM93.55 9.52h-2.26v.4h2.26v-.4Zm-2.06.2a2.02 2.02 0 0 0-.31-1.064l-.341.208c.169.278.25.562.25.856h.4Zm-.308-1.06a2.342 2.342 0 0 0-.872-.853l-.2.346c.319.184.56.42.727.708l.346-.202Zm-.867-.85c-.385-.237-.85-.35-1.385-.35v.4c.478 0 .867.1 1.175.29l.21-.34Zm-1.381-.35c-.663-.014-1.236.149-1.704.5l.24.32c.385-.289.865-.433 1.456-.42l.008-.4Zm-1.701.498c-.48.345-.723.825-.723 1.422h.4c0-.47.183-.83.556-1.098l-.233-.324Zm-.723 1.422c0 .716.29 1.29.863 1.702l.233-.325c-.466-.334-.696-.787-.696-1.377h-.4Zm.866 1.704c.544.377 1.413.758 2.591 1.146l.125-.38c-1.169-.385-1.993-.751-2.488-1.094l-.228.328Zm2.591 1.146c.721.236 1.353.523 1.898.86l.21-.34a9.18 9.18 0 0 0-1.983-.9l-.124.38Zm1.902.863a3.49 3.49 0 0 1 1.27 1.23l.342-.206a3.89 3.89 0 0 0-1.41-1.37l-.202.346Zm1.272 1.235c.308.479.469 1.105.469 1.892h.4c0-.84-.172-1.547-.532-2.108l-.337.216Zm.469 1.892c0 .712-.178 1.355-.531 1.936l.342.208c.393-.646.589-1.362.589-2.144h-.4Zm-.53 1.934c-.352.566-.863 1.022-1.541 1.368l.181.356c.736-.374 1.305-.878 1.7-1.512l-.34-.212Zm-1.542 1.369c-.659.341-1.465.517-2.428.517v.4c1.01 0 1.884-.184 2.612-.563l-.184-.354Z" mask="url(#a)"/><path stroke="#212121" stroke-width="2.5" d="M6 4v8"/><path stroke="#212121" stroke-linejoin="bevel" stroke-width="2.5" d="m1 9 5 4 5-4"/><circle cx="6" cy="18" r="2" fill="#212121"/></svg>